# xmcd
#
# Track frame offsets:
#	150
#	13230
#	28370
#	41157
#	53293
#	66340
#	79085
#	92327
#	106398
#	120194
#	134556
#	149221
#	162025
#	176717
#	190822
#	204015
#	215998
#	230068
#	242018
#	255261
#	270332
#	283903
#	296680
#	310317
#	324582
#	337632
#
# Disc length: 4681 seconds
# Revision: 1
# Processed by: cddbd v1.5.2PL0 Copyright (c) Steve Scherf et al.
# Submitted via: dBpowerAMP V12.0
#
DISCID=7f12471a
DTITLE=Various Artist - Peabody Blues (Recorded at the Peabody Hotel in Memphis in September 1929)
DYEAR=2014
DGENRE=Blues
TTITLE0=Furry Lewis - John Henry (The Steel Driving Man) Part 1
TTITLE1=Furry Lewis - John Henry (The Steel Driving Man) Part 2
TTITLE2=Furry Lewis - Black Gypsy Blues
TTITLE3=Furry Lewis - Creeper s Blues
TTITLE4=Walter Vinson - You re Friend Gonna Use It Too Part 1
TTITLE5=Walter Vinson - You re Friend Gonna Use It Too Part 2
TTITLE6=Walter Vinson - Overtime Blues
TTITLE7=Charlie McCoy - It Ain t No Good Part 1
TTITLE8=Charlie McCoy - It Ain t No Good Part 2
TTITLE9=Speckled Red - House Dance Blues
TTITLE10=Speckled Red - The Dirty Dozen
TTITLE11=Speckled Red - Wilkins Street Stomp
TTITLE12=Jenny Pope - Whiskey Drinking Blues
TTITLE13=Jenny Pope - Doggin Me Around Blues
TTITLE14=Robert Wilkins - That s No Way To Get Along
TTITLE15=Robert Wilkins - Alabama Blues
TTITLE16=Robert Wilkins - Long Train Blues
TTITLE17=Robert Wilkins - Falling Down Blues
TTITLE18=Garfield Akers - Cottonfield Blues Part 1
TTITLE19=Garfield Akers - Cottonfield Blues Part 2
TTITLE20=Jed Davenport - How Long How Long Blues
TTITLE21=Jed Davenport - Cow Cow Blues
TTITLE22=Joe Williams - I Want It Awful Bad
TTITLE23=Joe Williams - Mr. Devil Blues
TTITLE24=Kid Bailey - Mississippi Bottom Blues
TTITLE25=Kid Bailey - Rowdy Blues
EXTD=
EXTT0=
EXTT1=
EXTT2=
EXTT3=
EXTT4=
EXTT5=
EXTT6=
EXTT7=
EXTT8=
EXTT9=
EXTT10=
EXTT11=
EXTT12=
EXTT13=
EXTT14=
EXTT15=
EXTT16=
EXTT17=
EXTT18=
EXTT19=
EXTT20=
EXTT21=
EXTT22=
EXTT23=
EXTT24=
EXTT25=
PLAYORDER=
